<?xml version="1.0" encoding="iso-8859-1"?>
<!-- Generator: Adobe Illustrator 19.0.0, SVG Export Plug-In . SVG Version: 6.00 Build 0)  -->
<svg version="1.1" id="Capa_1" xmlns="http://www.w3.org/2000/svg" xmlns:xlink="http://www.w3.org/1999/xlink" x="0px" y="0px"
	 viewBox="0 0 480 480" style="enable-background:new 0 0 480 480;" xml:space="preserve">
<g>
	<g>
		<path d="M472,0H8C3.584,0,0,3.584,0,8v464c0,4.416,3.584,8,8,8h464c4.416,0,8-3.584,8-8V8C480,3.584,476.416,0,472,0z M464,464H16
			V16h448V464z"/>
	</g>
</g>
<g>
	<g>
		<path d="M232,168h-9.168c0.688-2.608,1.168-5.272,1.168-8c0-8.632-3.44-16.712-9.448-22.648c0.96-3.04,1.448-6.168,1.448-9.352
			c0-17.648-14.352-32-32-32c-1.416,0-2.824,0.096-4.224,0.288C174.2,86.416,163.664,80,152,80s-22.2,6.416-27.776,16.288
			C122.824,96.096,121.416,96,120,96c-17.648,0-32,14.352-32,32c0,3.184,0.488,6.312,1.448,9.352C83.44,143.288,80,151.368,80,160
			c0,2.728,0.48,5.392,1.168,8H72c-4.416,0-8,3.584-8,8v16c0,28.2,16.336,52.592,40,64.4V272c0,13.232,10.768,24,24,24h48
			c13.232,0,24-10.768,24-24v-15.6c23.664-11.808,40-36.208,40-64.4v-16C240,171.584,236.416,168,232,168z M103.48,146.52
			c3.608-2.288,4.784-6.992,2.68-10.704c-1.432-2.528-2.16-5.152-2.16-7.816c0-10.808,11.32-19.088,21.952-14.816
			c2.128,0.848,4.512,0.76,6.544-0.264c2.04-1.016,3.552-2.864,4.152-5.072C138.536,100.872,144.848,96,152,96
			s13.464,4.872,15.352,11.848c0.6,2.2,2.112,4.048,4.152,5.072c2.048,1.024,4.432,1.12,6.544,0.264
			c10.64-4.272,21.952,4,21.952,14.816c0,2.664-0.728,5.288-2.16,7.816c-2.104,3.712-0.928,8.416,2.68,10.704
			c4.68,2.968,7.48,8.008,7.48,13.48c0,3.288-0.992,5.96-2.216,8H98.216c-1.224-2.04-2.216-4.712-2.216-8
			C96,154.528,98.8,149.488,103.48,146.52z M184,272c0,4.408-3.592,8-8,8h-48c-4.408,0-8-3.592-8-8v-8h16h32h16V272z M224,192
			c0,30.88-25.12,56-56,56h-32c-30.88,0-56-25.12-56-56v-8h14.224h115.544H224V192z"/>
	</g>
</g>
<g>
	<g>
		<path d="M192,200c0,4.408-3.592,8-8,8v16c13.232,0,24-10.768,24-24H192z"/>
	</g>
</g>
<g>
	<g>
		<rect x="136" y="136" width="16" height="16"/>
	</g>
</g>
<g>
	<g>
		<rect x="168" y="136" width="16" height="16"/>
	</g>
</g>
<g>
	<g>
		<rect x="152" y="216" width="16" height="16"/>
	</g>
</g>
<g>
	<g>
		<path d="M264,32H40c-4.416,0-8,3.584-8,8v296c0,4.416,3.584,8,8,8h224c4.416,0,8-3.584,8-8V40C272,35.584,268.416,32,264,32z
			 M256,328H48V48h208V328z"/>
	</g>
</g>
<g>
	<g>
		<path d="M232,368H72c-4.416,0-8,3.584-8,8v64c0,4.416,3.584,8,8,8h160c4.416,0,8-3.584,8-8v-64C240,371.584,236.416,368,232,368z
			 M224,432H80v-48h144V432z"/>
	</g>
</g>
<g>
	<g>
		<rect x="96" y="400" width="112" height="16"/>
	</g>
</g>
<g>
	<g>
		<rect x="288" y="160" width="16" height="16"/>
	</g>
</g>
<g>
	<g>
		<rect x="320" y="160" width="80" height="16"/>
	</g>
</g>
<g>
	<g>
		<rect x="288" y="208" width="16" height="16"/>
	</g>
</g>
<g>
	<g>
		<rect x="320" y="208" width="80" height="16"/>
	</g>
</g>
<g>
	<g>
		<rect x="288" y="256" width="16" height="16"/>
	</g>
</g>
<g>
	<g>
		<rect x="320" y="256" width="80" height="16"/>
	</g>
</g>
<g>
	<g>
		<rect x="288" y="304" width="16" height="16"/>
	</g>
</g>
<g>
	<g>
		<rect x="320" y="304" width="80" height="16"/>
	</g>
</g>
<g>
	<g>
		<rect x="416" y="160" width="32" height="16"/>
	</g>
</g>
<g>
	<g>
		<rect x="416" y="208" width="32" height="16"/>
	</g>
</g>
<g>
	<g>
		<rect x="416" y="256" width="32" height="16"/>
	</g>
</g>
<g>
	<g>
		<rect x="416" y="304" width="32" height="16"/>
	</g>
</g>
<g>
	<g>
		<path d="M440,32H296c-4.416,0-8,3.584-8,8v80c0,4.416,3.584,8,8,8h144c4.416,0,8-3.584,8-8V40C448,35.584,444.416,32,440,32z
			 M432,112H304V48h128V112z"/>
	</g>
</g>
<g>
	<g>
		<rect x="320" y="72" width="96" height="16"/>
	</g>
</g>
<g>
	<g>
		<path d="M392,336c-25.096,0-46.616,16.472-53.576,40H280.72c-3.904,0-7.24,2.824-7.888,6.672C272.272,386,272,389.048,272,392
			c0,30.88,25.12,56,56,56c11.912,0,22.952-3.768,32.04-10.136C369.4,444.408,380.512,448,392,448c30.88,0,56-25.12,56-56
			S422.88,336,392,336z M367.24,399.536c-0.048,0.24-0.064,0.48-0.112,0.72c-0.464,2.208-1.168,4.328-1.984,6.384
			c-0.176,0.448-0.328,0.912-0.528,1.352c-0.832,1.896-1.84,3.688-2.944,5.424c-0.32,0.504-0.632,1.016-0.984,1.504
			c-1.152,1.64-2.44,3.184-3.824,4.632c-0.432,0.448-0.872,0.888-1.32,1.32C348.352,427.728,338.688,432,328,432
			c-22.056,0-40-17.944-40-40h56.72H368C368,394.584,367.704,397.088,367.24,399.536z M392,432c-7.072,0-13.968-1.888-20.016-5.416
			c0.072-0.088,0.112-0.192,0.184-0.28c3.632-4.664,6.52-9.904,8.544-15.576c0.08-0.224,0.168-0.448,0.248-0.68
			c0.912-2.664,1.624-5.408,2.128-8.232c0.072-0.408,0.128-0.824,0.192-1.232c0.424-2.8,0.72-5.656,0.72-8.584
			c0-2.952-0.272-6-0.832-9.328c-0.648-3.848-3.984-6.672-7.888-6.672h-19.92c6.2-14.336,20.384-24,36.64-24
			c22.056,0,40,17.944,40,40C432,414.056,414.056,432,392,432z"/>
	</g>
</g>
<g>
	<g>
		<rect x="304" y="400" width="16" height="16"/>
	</g>
</g>
<g>
	<g>
		<rect x="336" y="400" width="16" height="16"/>
	</g>
</g>
<g>
	<g>
		<path d="M400,392c0,4.408-3.592,8-8,8v16c13.232,0,24-10.768,24-24H400z"/>
	</g>
</g>
<g>
</g>
<g>
</g>
<g>
</g>
<g>
</g>
<g>
</g>
<g>
</g>
<g>
</g>
<g>
</g>
<g>
</g>
<g>
</g>
<g>
</g>
<g>
</g>
<g>
</g>
<g>
</g>
<g>
</g>
</svg>
