<svg id="Capa_1" enable-background="new 0 0 512.001 512.001" height="512" viewBox="0 0 512.001 512.001" width="512" xmlns="http://www.w3.org/2000/svg"><g><path d="m511.99 405.013c-.795-57.43-48.082-104.013-105.491-104.013-.123 0-.247.001-.37.001-22.104.076-43.494 7.072-61.271 19.883-25.654-12.872-56.785-19.884-88.858-19.884-34.439 0-67.232 8.032-93.486 22.309 4.574-32.64 9.289-88.164 7.924-174.642h76.486l26.075-61.359-23.503-87.308h-72.976c-56.424 0-106.065 38.063-120.719 92.561-25.456 94.674-55.801 241.691-55.801 404.439v15h256c32.073 0 63.203-7.012 88.856-19.883 17.88 12.885 39.403 19.883 61.644 19.883 28.456 0 55.133-11.159 75.117-31.421 19.98-20.257 30.767-47.094 30.373-75.566zm-51.732 54.501c-14.302 14.5-33.394 22.486-53.758 22.486-18.491 0-36.285-6.758-50.104-19.028l-8.169-7.253-9.409 5.549c-22.672 13.369-52.084 20.732-82.818 20.732h-225.913c1.78-153.499 30.483-291.643 54.685-381.65 11.137-41.421 48.865-70.35 91.748-70.35h49.984l14.834 55.106-14.262 33.561h-66.934v-27h-30v57h10.291c1.201 75.604-2.391 125.989-5.74 155.486-3.864 34.042-8.249 48.409-8.274 48.49l-6.257 19.568h27.848l4.411-4.503c22.52-22.985 61.241-36.708 103.579-36.708 30.734 0 60.146 7.363 82.817 20.732l9.41 5.549 8.169-7.253c13.746-12.207 31.445-18.964 49.837-19.027.09 0 .174-.001.264-.001 41.083 0 74.928 33.335 75.495 74.427.282 20.381-7.436 39.59-21.734 54.087z"/></g></svg>