<svg id="Capa_1" enable-background="new 0 0 512 512" height="512" viewBox="0 0 512 512" width="512" xmlns="http://www.w3.org/2000/svg"><g><g><path d="m211.493 447.188c-3.893-32.97-30.59-59.042-63.845-61.965 7.667-9.315 12.277-21.236 12.277-34.215v-12.763c0-29.734-24.19-53.925-53.925-53.925s-53.925 24.19-53.925 53.925v12.763c0 12.978 4.61 24.899 12.277 34.215-36.01 3.164-64.352 33.47-64.352 70.288v46.489c0 5.523 4.477 10 10 10h192c5.523 0 10-4.477 10-10v-36.336c2.74-1.22 4.903-3.653 5.661-6.794 1.194-4.951-1.527-9.922-6.168-11.682zm-139.418-108.942c0-18.706 15.219-33.925 33.925-33.925s33.925 15.219 33.925 33.925v12.763c0 18.706-15.219 33.924-33.925 33.924s-33.925-15.218-33.925-33.924zm119.925 153.754h-25.967v-29.788c0-5.523-4.477-10-10-10s-10 4.477-10 10v29.788h-80v-29.788c0-5.523-4.477-10-10-10s-10 4.477-10 10v29.788h-26.033v-36.489c0-27.889 22.689-50.578 50.578-50.578h70.844c27.889 0 50.578 22.689 50.578 50.578z"/><path d="m261.131 452.146c-3.444.087-6.916.087-10.259 0-5.525-.151-10.114 4.213-10.258 9.735-.145 5.521 4.214 10.114 9.735 10.258 1.857.049 3.759.073 5.652.073 1.865 0 3.764-.024 5.643-.073 5.521-.142 9.883-4.732 9.741-10.253-.144-5.521-4.769-9.917-10.254-9.74z"/><path d="m158.365 88.515c1.618 0 3.258-.394 4.778-1.222 1.663-.907 3.361-1.801 5.049-2.657 4.924-2.5 6.89-8.519 4.39-13.444s-8.521-6.89-13.444-4.39c-1.862.945-3.736 1.932-5.57 2.932-4.849 2.644-6.636 8.718-3.993 13.567 1.817 3.327 5.248 5.214 8.79 5.214z"/><path d="m53.228 231.261c.601.108 1.199.161 1.789.161 4.745 0 8.956-3.391 9.829-8.225.682-3.773 1.486-7.576 2.392-11.3 1.305-5.367-1.988-10.774-7.354-12.079-5.367-1.307-10.775 1.988-12.079 7.354-1 4.11-1.888 8.306-2.64 12.47-.982 5.436 2.628 10.638 8.063 11.619z"/><path d="m110.055 125.062c2.594 0 5.187-1.003 7.146-3.003 2.685-2.742 5.488-5.44 8.331-8.019 4.091-3.711 4.398-10.035.688-14.125-3.711-4.091-10.036-4.398-14.125-.688-3.133 2.843-6.223 5.816-9.184 8.839-3.864 3.946-3.797 10.277.148 14.142 1.946 1.904 4.472 2.854 6.996 2.854z"/><path d="m69.936 172.989c1.471.762 3.043 1.123 4.592 1.123 3.617 0 7.108-1.968 8.887-5.401 1.762-3.401 3.653-6.798 5.621-10.097 2.829-4.744 1.276-10.882-3.467-13.711-4.743-2.827-10.882-1.276-13.711 3.467-2.17 3.639-4.256 7.387-6.201 11.14-2.541 4.903-.625 10.938 4.279 13.479z"/><path d="m42.558 276.723c.452 5.208 4.819 9.136 9.951 9.136.29 0 .582-.012.875-.038 5.502-.477 9.576-5.325 9.098-10.827-.164-1.887-.302-3.803-.411-5.694-.317-5.514-5.049-9.732-10.558-9.409-5.514.317-9.727 5.044-9.409 10.558.121 2.083.273 4.194.454 6.274z"/><path d="m343.808 84.635c1.681.853 3.38 1.748 5.05 2.658 1.521.829 3.16 1.222 4.777 1.222 3.542 0 6.975-1.887 8.789-5.216 2.644-4.85.854-10.923-3.994-13.566-1.841-1.003-3.715-1.99-5.569-2.931-4.92-2.499-10.943-.535-13.443 4.39-2.501 4.924-.535 10.943 4.39 13.443z"/><path d="m394.8 122.058c1.958 2 4.551 3.003 7.146 3.003 2.523 0 5.05-.95 6.995-2.855 3.946-3.864 4.013-10.196.148-14.142-2.957-3.02-6.047-5.994-9.184-8.839-4.092-3.71-10.414-3.404-14.125.688-3.711 4.091-3.403 10.415.688 14.125 2.845 2.583 5.648 5.28 8.332 8.02z"/><path d="m428.584 168.71c1.779 3.433 5.271 5.401 8.887 5.401 1.55 0 3.122-.361 4.593-1.123 4.903-2.541 6.819-8.576 4.278-13.479-1.943-3.75-4.029-7.498-6.2-11.139-2.827-4.743-8.963-6.296-13.71-3.468-4.743 2.828-6.297 8.967-3.468 13.71 1.968 3.302 3.859 6.7 5.62 10.098z"/><path d="m444.763 211.898c.906 3.724 1.71 7.525 2.392 11.298.872 4.834 5.084 8.226 9.829 8.226.59 0 1.188-.053 1.788-.161 5.435-.981 9.046-6.182 8.064-11.617-.752-4.165-1.64-8.361-2.64-12.472-1.306-5.367-6.71-8.658-12.08-7.354-5.366 1.306-8.659 6.714-7.353 12.08z"/><path d="m460.486 259.891c-5.508-.321-10.24 3.896-10.558 9.409-.108 1.885-.247 3.8-.411 5.692-.479 5.502 3.593 10.351 9.095 10.829.295.025.588.038.879.038 5.131 0 9.498-3.927 9.95-9.134.182-2.086.335-4.197.454-6.277.318-5.513-3.895-10.24-9.409-10.557z"/><path d="m150 171.19v46.489c0 5.523 4.477 10 10 10h51c5.523 0 10-4.477 10-10s-4.477-10-10-10h-.768v-29.788c0-5.523-4.477-10-10-10s-10 4.477-10 10v29.788h-20.232v-36.489c0-27.889 22.689-50.578 50.578-50.578h70.844c27.889 0 50.578 22.689 50.578 50.578v36.489h-20.166v-29.788c0-5.523-4.478-10-10-10s-10 4.477-10 10v29.788h-.834c-5.522 0-10 4.477-10 10s4.478 10 10 10h51c5.522 0 10-4.477 10-10v-46.489c0-36.818-28.342-67.124-64.352-70.288 7.667-9.316 12.277-21.237 12.277-34.215v-12.763c0-29.734-24.191-53.924-53.925-53.924s-53.925 24.19-53.925 53.924v12.763c0 12.979 4.61 24.899 12.277 34.215-36.01 3.164-64.352 33.47-64.352 70.288zm72.075-117.266c0-18.706 15.219-33.924 33.925-33.924s33.925 15.218 33.925 33.924v12.763c0 18.706-15.219 33.925-33.925 33.925s-33.925-15.219-33.925-33.925z"/><path d="m447.648 385.223c7.667-9.315 12.277-21.236 12.277-34.215v-12.763c0-29.734-24.19-53.925-53.925-53.925s-53.925 24.19-53.925 53.925v12.763c0 12.978 4.61 24.899 12.277 34.215-33.254 2.922-59.951 28.994-63.845 61.965-4.641 1.76-7.363 6.732-6.168 11.684.757 3.141 2.92 5.573 5.66 6.793v36.335c0 5.523 4.478 10 10 10h192c5.522 0 10-4.477 10-10v-46.489c.001-36.818-28.341-67.124-64.351-70.288zm-75.573-46.977c0-18.706 15.219-33.925 33.925-33.925s33.925 15.219 33.925 33.925v12.763c0 18.706-15.219 33.924-33.925 33.924s-33.925-15.218-33.925-33.924zm119.925 153.754h-25.967v-29.788c0-5.523-4.478-10-10-10s-10 4.477-10 10v29.788h-80v-29.788c0-5.523-4.478-10-10-10s-10 4.477-10 10v29.788h-26.033v-36.489c0-27.889 22.689-50.578 50.578-50.578h70.844c27.889 0 50.578 22.689 50.578 50.578z"/><path d="m198.338 371.928c3.571 4.213 9.882 4.733 14.094 1.163l43.568-36.929 43.567 36.928c1.879 1.593 4.176 2.372 6.461 2.372 2.837 0 5.655-1.201 7.633-3.534 3.571-4.213 3.051-10.523-1.162-14.094l-46.499-39.414v-57.97c0-5.523-4.478-10-10-10-5.523 0-10 4.477-10 10v57.97l-46.499 39.413c-4.213 3.572-4.733 9.882-1.163 14.095z"/><circle cx="256" cy="217.677" r="10"/></g></g></svg>