<?xml version="1.0"?>
<svg xmlns="http://www.w3.org/2000/svg" viewBox="0 0 512 512" width="512" height="512"><g id="Out_line" data-name="Out line"><path d="M87.05371,158.64062a153.39672,153.39672,0,0,1,1.80176,141.28516l14.29,7.19727A169.404,169.404,0,0,0,101.62915,152h308.7417a169.40414,169.40414,0,0,0-1.51636,155.123l14.29-7.19727a153.39672,153.39672,0,0,1,1.80176-141.28516l47.439-88.55175a199.46294,199.46294,0,0,0,17.23731-44.08106l-15.48828-4.01562a183.416,183.416,0,0,1-15.85254,40.541L444.63879,88H67.36157L53.71826,62.53223a183.38981,183.38981,0,0,1-15.85254-40.54L22.37744,26.00781A199.43647,199.43647,0,0,0,39.61475,70.08789ZM436.06738,104l-17.14282,32H93.07556L75.93292,104Z"/><path d="M38.49994,432H104V416H42.82654A245.15774,245.15774,0,0,1,61.25,371.78711l-14.09375-7.57422A262.35031,262.35031,0,0,0,16,487.999V496H32v-8.001q0-4.002.13483-7.999H80V464H33.19269A246.49524,246.49524,0,0,1,38.49994,432Z"/><path d="M464.84375,364.21289,450.75,371.78711A245.18127,245.18127,0,0,1,469.17322,416H408v16h65.49988a246.48673,246.48673,0,0,1,5.30725,32H432v16h47.86523q.13165,3.99718.13477,8v8h16v-8A262.3513,262.3513,0,0,0,464.84375,364.21289Z"/><rect x="240" y="416" width="32" height="16"/><rect x="168" y="464" width="176" height="16"/><path d="M167.69238,237.80176l-15.38476,4.39648a408.75912,408.75912,0,0,1,14.30761,78.46l15.94532-1.3164A424.81949,424.81949,0,0,0,167.69238,237.80176Z"/><rect x="248" y="320" width="16" height="16"/><path d="M359.69238,242.19824l-15.38476-4.39648a424.81949,424.81949,0,0,0-14.86817,81.54l15.94532,1.3164A408.75912,408.75912,0,0,1,359.69238,242.19824Z"/><path d="M240,224V208h-9.35254a74.76454,74.76454,0,0,1-63.7876-36.11621l-13.71972,8.23242A90.84566,90.84566,0,0,0,230.64746,224Z"/><path d="M358.85986,180.11621l-13.71972-8.23242A74.76454,74.76454,0,0,1,281.35254,208H272v16h9.35254A90.84566,90.84566,0,0,0,358.85986,180.11621Z"/><path d="M59.87451,317.44922a33.56369,33.56369,0,0,0,13.41895,6.69922l132.8081,32.44433,3.79688-15.543L77.09033,308.60547a17.43036,17.43036,0,0,1-10.8399-7.96607A17.47336,17.47336,0,0,1,78.11572,296H80V280H78.11572a33.48,33.48,0,0,0-13.28528,2.75488l.53284-3.72949A17.58653,17.58653,0,0,1,82.686,264.001H88v-16H82.68555A33.66418,33.66418,0,0,0,49.52441,276.7627L43.3999,319.63379a33.6932,33.6932,0,0,0,25.69776,37.39453l97.11963,22.19922,3.56542-15.59766L72.6626,341.43066a17.6,17.6,0,0,1-13.42383-19.53418Z"/><path d="M422.06787,458.7793a307.00257,307.00257,0,0,0-81.94922-71.64649l-8.2373,13.7168a290.96778,290.96778,0,0,1,72.6289,61.76758L385.708,476.71875a262.27468,262.27468,0,0,0-94.1836-78.10645l-7.04882,14.36329a246.16638,246.16638,0,0,1,92.9707,79.6123,8.00036,8.00036,0,0,0,11.35351,1.8125l32-24a8.00151,8.00151,0,0,0,1.44336-11.40332Z"/><path d="M442.90186,357.02832a33.69313,33.69313,0,0,0,25.69824-37.39453l-6.12451-42.87012A33.6643,33.6643,0,0,0,429.314,248.001H424v16h5.31348a17.58665,17.58665,0,0,1,17.32324,15.02539l.53271,3.72876A33.47633,33.47633,0,0,0,433.88428,280H432v16h1.88428a17.473,17.473,0,0,1,11.86511,4.63965,17.431,17.431,0,0,1-10.83972,7.96582l-177.563,43.37793A309.588,309.588,0,0,0,89.936,458.77344l-.1792.22363a8.00151,8.00151,0,0,0,1.44336,11.40332l32,24a7.99932,7.99932,0,0,0,11.35351-1.8125A245.07321,245.07321,0,0,1,280.98,394.03906ZM126.29053,476.71777l-18.79834-14.09863a293.60836,293.60836,0,0,1,153.65136-95.09277l177.563-43.37793a33.56369,33.56369,0,0,0,13.41895-6.69922l.63574,4.44824a17.59949,17.59949,0,0,1-13.42432,19.5332L277.41455,378.44141A261.011,261.011,0,0,0,126.29053,476.71777Z"/></g></svg>
