<?xml version="1.0"?>
<svg xmlns="http://www.w3.org/2000/svg" viewBox="0 0 512 512" width="512" height="512"><g id="Out_line" data-name="Out line"><path d="M470.146,154.87891l-40-48q-.23219-.2798-.48926-.53614L395.377,72.063a15.93569,15.93569,0,0,0-4.6206-12.62061l-9.23926-9.23877-14.311-29.67822a8.00111,8.00111,0,0,0-9.73584-4.11523l-24,8a8.00016,8.00016,0,0,0-4.89794,10.56054l13.84155,34.604L318.313,89.65918A96.851,96.851,0,0,0,289.67285,129.915l-6.90674,2.76269a22.83752,22.83752,0,0,0-3.23242-13.0039l-8.61621-14.36035a22.89608,22.89608,0,0,0-40.21545,1.67529A32.03971,32.03971,0,0,0,217.167,104H208a32.03635,32.03635,0,0,0-32,32v14.11133l-7.15527,14.31055a8.00091,8.00091,0,0,0,1.49853,9.23535l5.007,5.00683-27.19592,4.53321a50.801,50.801,0,0,0-26.59522-20.44434L96,154.2334V144a7.99979,7.99979,0,0,0-4.42236-7.15527l-32-16a7.99983,7.99983,0,0,0-9.23438,1.498l-16,16a8.00034,8.00034,0,0,0,0,11.31446l32,32a8.01169,8.01169,0,0,0,.85694.74316l64,48A8.00222,8.00222,0,0,0,136,232h74.48926a68.5569,68.5569,0,0,0,32.56054,34.46875A128.813,128.813,0,0,0,300.36719,280H312v48a8.03038,8.03038,0,0,0,.15527,1.56934L320,368.792v82.26367L283.57666,469.2666A20.83364,20.83364,0,0,0,272,488a8.00008,8.00008,0,0,0,8,8h72a8.00058,8.00058,0,0,0,7.76123-9.94043l-7.39587-29.5835,14.24255-37.98a79.72534,79.72534,0,0,0,1.74414-50.60839l3.50488-12.26563a134.77273,134.77273,0,0,0-2.30761-80.91406l67.3623-52.39356a7.99682,7.99682,0,0,0,2.03418-2.3457l32-56A7.999,7.999,0,0,0,470.146,154.87891ZM355.85156,33.81543,361.901,46.36084a15.93851,15.93851,0,0,0-5.97034,5.3208l-2.15124,3.22681-7.20081-18.0022Zm-56.88037,109.6123a7.99862,7.99862,0,0,0,4.61817-4.89746,80.867,80.867,0,0,1,24.96679-36.58007l28.56543-23.80469a7.97241,7.97241,0,0,0,1.53467-1.708l10.5874-15.87988,10.19922,10.19922L363.5625,81.34375a7.98519,7.98519,0,0,0-1.80957,1.6582l-62.313,77.8916-29.38037,7.34571a7.99818,7.99818,0,0,0-5.64893,5.23047l-5.09277,15.27734-9.14868-18.29736a25.53883,25.53883,0,0,0,3.10669-3.68824A101.61189,101.61189,0,0,1,279.98,151.02441ZM314.66272,208H300.5293L284.415,181.14258l21.52539-5.38184a8.00251,8.00251,0,0,0,4.30664-2.76269l58.06958-72.58716,24.3728,54.83813a8.00212,8.00212,0,0,0,2.873,3.40723l11.36743,7.57813-38.886,24.30371A38.67027,38.67027,0,0,0,314.66272,208Zm-85.00415-13.655-.00183-.0022-16-16a8.00008,8.00008,0,0,0-9.23438-1.498l-8.84472,4.42187-4.42237-8.84472a8.011,8.011,0,0,0-1.49853-2.07911l-3.92285-3.92285,5.42138-10.8418A7.99934,7.99934,0,0,0,192,152v-5.75415l19.91016,4.97778,21.51513,21.51563,6.09571,12.1914-1.79444,7.17676a4.811,4.811,0,0,1-8.068,2.23755Zm17.74768-83.00122a6.934,6.934,0,0,1,9.7915,2.20215l8.61621,14.36035a6.92411,6.92411,0,0,1-2.09765,9.335l-1.07861.71875a6.93463,6.93463,0,0,1-10.04786-2.66894l-6.80127-13.60254c-.24755-.49512-.519-.97217-.78894-1.45l.05115-.02564A6.94491,6.94491,0,0,1,247.40625,111.34375ZM208,120h9.167a15.91239,15.91239,0,0,1,14.311,8.84473l9.3667,18.73339a9.82426,9.82426,0,0,1,.53662,7.54883,10.03,10.03,0,0,1-.44287,1.0979c-.25037.21534-.49512.43824-.7439.65577l-18.53784-18.53785a8.0021,8.0021,0,0,0-3.71631-2.10351l-24.79-6.19824A16.02669,16.02669,0,0,1,208,120ZM77.25488,169.94141,51.31348,144l6.26611-6.26562L80,148.94434V160a8.00071,8.00071,0,0,0,5.47021,7.58984l31.0293,10.34278a34.95433,34.95433,0,0,1,20.34522,17.6455,8.00335,8.00335,0,0,0,8.4707,4.31348l38.47937-6.41333,1.04993,2.09985a7.99962,7.99962,0,0,0,10.73291,3.57715l10.84277-5.42089,8.42676,8.42675L210.234,216H138.6665Zm172.9502,82.21679a52.68847,52.68847,0,0,1-25.73914-28.25757l4.19739-12.59252a20.42663,20.42663,0,0,0,4.29077.4663,21.15542,21.15542,0,0,0,5.65967-.77734,20.63459,20.63459,0,0,0,10.9519-7.33789,13.97872,13.97872,0,0,0,23.3855-5.21484L274.089,195.031l15.05115,25.0852A8.00072,8.00072,0,0,0,296,224h17.44141l3.20556,16.02832A44.3732,44.3732,0,0,1,314.75781,264H300.36719A112.73689,112.73689,0,0,1,250.20508,252.1582ZM297.8877,480l32.001-16h7.86524l4,16ZM425.83936,210.65723l-70.751,55.02832a8.00008,8.00008,0,0,0-2.51611,9.28613,118.60446,118.60446,0,0,1,3.8999,76.25391l-4.16455,14.57714a8.00106,8.00106,0,0,0,.103,4.72754,63.65692,63.65692,0,0,1-.78418,42.34864L338.45605,448H336V368a8.03038,8.03038,0,0,0-.15527-1.56934L328,327.208V280h16V264H331.50781a60.41051,60.41051,0,0,0,.82862-27.11035l-4.02539-20.1272.26123-.65307a22.65523,22.65523,0,0,1,34.62744-9.71,8.00109,8.00109,0,0,0,9.04052.38477l64-40-8.48046-13.56836-5.94263,3.71411-15.449-10.29907L380.79272,89.08667l5.38794-3.592,31.90577,31.90576,36.21142,43.4541Z"/></g></svg>
